<svg height="700pt" preserveAspectRatio="xMidYMid meet" viewBox="0 0 700 700" width="700pt" xmlns="http://www.w3.org/2000/svg"><path d="m1193 6980c-56-10-117-23-135-29-149-48-197-66-266-101-286-145-511-373-647-655-59-121-106-265-120-365-4-25-11-65-15-90-12-61-11-4409 0-4480 6-30 12-73 16-95 22-147 98-342 195-500 102-165 275-337 449-447 113-71 319-159 404-172 21-4 41-8 45-10 3-3 24-7 46-10 22-4 65-11 95-16 33-5 940-8 2275-7l2220 3 100 22c298 69 546 204 740 406 175 182 286 379 359 636 15 55 20 81 34 175 4 28 7 1049 7 2270 0 2353 2 2252-45 2425-124 462-471 834-911 978-266 87-62 81-2544 80-2076 0-2206-1-2302-18z" transform="matrix(.1 0 0 -.1 0 700)"/></svg>